{"title":"Contract Killers 2009 DVDrip English Klam","uid":6201378,"size":1472605905,"categoryP":"video","categoryS":"movies","magnet":"?xt=urn:btih:d8f5834dba45982646d8b6ae90cff3bbf7a83ac8&amp;dn=Contract+Killers+2009+DVDrip+English+Klam&amp;tr=udp%3A%2F%2Ftracker.openbittorrent.com%3A80&amp;tr=udp%3A%2F%2Fopen.demonii.com%3A1337&amp;tr=udp%3A%2F%2Ftracker.coppersurfer.tk%3A6969&amp;tr=udp%3A%2F%2Fexodus.desync.com%3A6969","seeders":1,"leechers":1,"uploader":"Klambake","files":-1,"time":1298631455,"description":"With: Nick Mancuso, Frida Show and Rhett Giles\n\nA CIA assassin attempts to break out of the contract killing business to try to lead a normal life. But when &quot;the system&quot; tracks her down and frames her for the death of her husband, she embarks on a path of revenge that leads her back into the life she tried to hard to abandon.\n\nGeneral:\n\nComplete name                    : Contract Killers\\Contract Killers.avi\nFormat                           : AVI\nFormat/Info                      : Audio Video Interleave\nFile size                        : 1.37 GiB\nDuration                         : 1h 26mn\nOverall bit rate                 : 2 266 Kbps\n\nVideo:\n\nFormat                           : MPEG-4 Visual\nFormat profile                   : Simple@L3\nFormat settings, BVOP            : No\nFormat settings, QPel            : No\nFormat settings, GMC             : No warppoints\nFormat settings, Matrix          : Default (H.263)\nCodec ID                         : XVID\nCodec ID/Hint                    : XviD\nDuration                         : 1h 26mn\nBit rate                         : 1 934 Kbps\nWidth                            : 704 pixels\nHeight                           : 396 pixels\nDisplay aspect ratio             : 16:9\nFrame rate                       : 29.970 fps\nColor space                      : YUV\nChroma subsampling               : 4:2:0\nBit depth                        : 8 bits\nScan type                        : Progressive\nBits/(Pixel*Frame)               : 0.232\nStream size                      : 1.17 GiB (85%)\nWriting library                  : XviD 1.1.2 (UTC 2006-11-01)\n\nAudio:\n\nFormat                           : AC-3\nFormat/Info                      : Audio Coding 3\nMode extension                   : CM (complete main)\nCodec ID                         : 2000\nDuration                         : 1h 26mn\nBit rate mode                    : Constant\nBit rate                         : 320 Kbps\nChannel(s)                       : 6 channels\nChannel positions                : Front: L C R, Side: L R, LFE\nSampling rate                    : 48.0 KHz\nBit depth                        : 16 bits\nStream size                      : 198 MiB (14%)\nAlignment                        : Aligned on interleaves\nInterleave, duration             : 32 ms (0.96 video frame)\n","torrent":{"xt":"urn:btih:d8f5834dba45982646d8b6ae90cff3bbf7a83ac8","amp;dn":"Contract+Killers+2009+DVDrip+English+Klam","amp;tr":["udp%3A%2F%2Ftracker.openbittorrent.com%3A80","udp%3A%2F%2Fopen.demonii.com%3A1337","udp%3A%2F%2Ftracker.coppersurfer.tk%3A6969","udp%3A%2F%2Fexodus.desync.com%3A6969"],"infoHash":"d8f5834dba45982646d8b6ae90cff3bbf7a83ac8","infoHashBuffer":{"type":"Buffer","data":[216,245,131,77,186,69,152,38,70,216,182,174,144,207,243,187,247,168,58,200]},"announce":[],"urlList":[]}}